<svg width="257" height="50" viewBox="0 0 257 50" fill="none" xmlns="http://www.w3.org/2000/svg">
<ellipse cx="24.1809" cy="25" rx="24.1809" ry="25" fill="#008DEA"/>
<path fill-rule="evenodd" clip-rule="evenodd" d="M28.5718 12.9571L24.9368 15.1038C24.5836 15.3124 24.1337 15.1853 23.932 14.82C23.7303 14.4547 23.8532 13.9894 24.2064 13.7808L27.086 12.0803L26.6797 11.8405C25.1264 10.9438 23.2347 10.9438 21.6816 11.8405V11.8402L9.38743 19.0955C8.76488 19.4582 8.28749 20.0382 8.04062 20.7316C7.79375 21.425 7.79375 22.1867 8.04062 22.8804C8.28751 23.5739 8.76492 24.1538 9.38743 24.5162H9.38771L13.5192 26.9556L15.5346 28.1441L21.6816 31.7716C23.2297 32.689 25.1315 32.689 26.6797 31.7716L32.8266 28.1441L34.8421 26.9556L37.1799 25.5796L38.9737 24.5163C39.0505 24.4724 39.1244 24.4238 39.1956 24.3703C40.0227 23.7993 40.5154 22.8348 40.5056 21.8061C40.5115 21.2531 40.372 20.7089 40.1022 20.2316C39.8324 19.7543 39.4426 19.3617 38.9737 19.0955V19.0958L33.84 16.0661L31.5085 17.4429C31.1553 17.6515 30.7054 17.5245 30.5037 17.1591C30.302 16.7938 30.4249 16.3286 30.7781 16.12L32.3541 15.1893L31.2059 14.5116L28.2226 16.2733C27.8694 16.4819 27.4196 16.3549 27.2179 15.9896C27.0162 15.6243 27.139 15.159 27.4923 14.9504L29.7201 13.6348L28.5718 12.9571ZM20.6738 33.5855C21.7432 34.2126 22.9513 34.543 24.1806 34.5445L24.1805 34.5447C25.4098 34.5433 26.618 34.2126 27.6872 33.5855H27.6875L34.8421 29.3533V31.3756C34.8497 32.9977 34.1272 34.5313 32.8872 35.5243C30.3913 37.5115 27.3302 38.5891 24.1805 38.5891C21.0309 38.5891 17.9698 37.5115 15.4739 35.5243C14.2339 34.5313 13.5113 32.9977 13.5189 31.3756H13.5192V29.3533L20.6738 33.5855ZM37.4723 36.077C37.2828 35.881 37.1772 35.6142 37.1802 35.3368V27.9771L39.1956 26.7681V35.3368C39.1939 35.9118 38.7437 36.3777 38.1879 36.3792C37.9196 36.3821 37.6618 36.273 37.4723 36.077Z" fill="white"/>
<path d="M58.541 36.2953V14.7928H63.1661V36.2953H58.541ZM62.0761 27.8588V23.7471H72.4751V27.8588H62.0761ZM62.0761 18.9045V14.7928H72.9464V18.9045H62.0761Z" fill="#008DEA"/>
<path d="M81.9378 36.6304C80.4649 36.6304 79.1294 36.2953 77.9314 35.6253C76.7531 34.9349 75.8202 34.0009 75.1328 32.8232C74.4455 31.6456 74.1018 30.3258 74.1018 28.8639C74.1018 27.4019 74.4455 26.0923 75.1328 24.9349C75.8202 23.7776 76.7531 22.8639 77.9314 22.1938C79.1098 21.5034 80.4453 21.1583 81.9378 21.1583C83.4304 21.1583 84.7659 21.4933 85.9443 22.1633C87.1226 22.8334 88.0555 23.7573 88.7428 24.9349C89.4302 26.0923 89.7739 27.4019 89.7739 28.8639C89.7739 30.3258 89.4302 31.6456 88.7428 32.8232C88.0555 34.0009 87.1226 34.9349 85.9443 35.6253C84.7659 36.2953 83.4304 36.6304 81.9378 36.6304ZM81.9378 32.3969C82.5859 32.3969 83.1555 32.2547 83.6465 31.9705C84.1374 31.6659 84.5106 31.2496 84.7659 30.7217C85.0408 30.1735 85.1783 29.5542 85.1783 28.8639C85.1783 28.1735 85.0408 27.5745 84.7659 27.0669C84.4909 26.539 84.108 26.1329 83.617 25.8486C83.1457 25.5441 82.5859 25.3918 81.9378 25.3918C81.3094 25.3918 80.7497 25.5441 80.2587 25.8486C79.7677 26.1329 79.3847 26.539 79.1098 27.0669C78.8348 27.5948 78.6974 28.204 78.6974 28.8943C78.6974 29.5644 78.8348 30.1735 79.1098 30.7217C79.3847 31.2496 79.7677 31.6659 80.2587 31.9705C80.7497 32.2547 81.3094 32.3969 81.9378 32.3969Z" fill="#008DEA"/>
<path d="M92.0178 36.2953V21.4933H96.5251V36.2953H92.0178ZM96.5251 28.1634L94.6397 26.6405C95.0128 24.9146 95.6413 23.5745 96.5251 22.6202C97.4088 21.6659 98.6363 21.1887 100.207 21.1887C100.895 21.1887 101.494 21.3004 102.004 21.5238C102.535 21.7268 102.996 22.0517 103.389 22.4984L100.708 26.0009C100.512 25.7776 100.266 25.605 99.9718 25.4831C99.6772 25.3613 99.3433 25.3004 98.9702 25.3004C98.2239 25.3004 97.6249 25.5441 97.1732 26.0314C96.7411 26.4984 96.5251 27.209 96.5251 28.1634Z" fill="#008DEA"/>
<path d="M111.257 36.6304C109.706 36.6304 108.321 36.3055 107.103 35.6557C105.905 34.9857 104.963 34.0618 104.275 32.8842C103.588 31.7065 103.244 30.3765 103.244 28.8943C103.244 27.4121 103.578 26.0923 104.246 24.9349C104.933 23.7573 105.856 22.8334 107.015 22.1633C108.174 21.4933 109.48 21.1583 110.933 21.1583C112.347 21.1583 113.594 21.473 114.674 22.1024C115.754 22.7319 116.599 23.605 117.208 24.7217C117.836 25.8385 118.15 27.1177 118.15 28.5593C118.15 28.8232 118.131 29.1075 118.092 29.4121C118.072 29.6963 118.023 30.0314 117.944 30.4172L105.601 30.4476V27.2496L116.029 27.2192L114.085 28.5593C114.065 27.7065 113.938 27.006 113.702 26.4578C113.466 25.8892 113.113 25.4628 112.642 25.1786C112.19 24.874 111.63 24.7217 110.962 24.7217C110.255 24.7217 109.637 24.8943 109.107 25.2395C108.596 25.5644 108.193 26.0314 107.899 26.6405C107.624 27.2496 107.486 27.9908 107.486 28.8639C107.486 29.737 107.634 30.4882 107.928 31.1177C108.242 31.7268 108.674 32.204 109.224 32.5491C109.794 32.874 110.462 33.0364 111.228 33.0364C111.935 33.0364 112.573 32.9146 113.142 32.671C113.712 32.407 114.213 32.0212 114.645 31.5136L117.119 34.072C116.412 34.9248 115.558 35.5644 114.556 35.9908C113.555 36.4172 112.455 36.6304 111.257 36.6304Z" fill="#008DEA"/>
<path d="M120.326 36.2953V21.4933H124.833V36.2953H120.326ZM122.594 19.4527C121.887 19.4527 121.298 19.209 120.827 18.7217C120.375 18.2141 120.149 17.605 120.149 16.8943C120.149 16.1633 120.375 15.5542 120.827 15.0669C121.298 14.5796 121.887 14.3359 122.594 14.3359C123.301 14.3359 123.881 14.5796 124.332 15.0669C124.784 15.5542 125.01 16.1633 125.01 16.8943C125.01 17.605 124.784 18.2141 124.332 18.7217C123.881 19.209 123.301 19.4527 122.594 19.4527Z" fill="#008DEA"/>
<path d="M134.076 42.9349C132.505 42.9349 131.12 42.6507 129.922 42.0821C128.744 41.5339 127.811 40.7522 127.123 39.737L129.893 36.874C130.403 37.5035 130.973 37.9806 131.601 38.3055C132.249 38.6304 133.025 38.7928 133.928 38.7928C135.048 38.7928 135.922 38.5085 136.55 37.94C137.198 37.3715 137.522 36.5694 137.522 35.5339V31.7573L138.288 28.5288L137.611 25.3004V21.4933H142.03V35.4121C142.03 36.9349 141.686 38.2547 140.999 39.3715C140.311 40.4882 139.369 41.3613 138.171 41.9908C136.973 42.6202 135.608 42.9349 134.076 42.9349ZM133.87 35.8385C132.554 35.8385 131.385 35.5136 130.364 34.8639C129.343 34.2141 128.537 33.3309 127.948 32.2141C127.359 31.0974 127.065 29.8588 127.065 28.4984C127.065 27.1177 127.359 25.8791 127.948 24.7826C128.537 23.6659 129.343 22.7928 130.364 22.1633C131.385 21.5136 132.554 21.1887 133.87 21.1887C134.852 21.1887 135.725 21.3816 136.491 21.7674C137.277 22.1329 137.905 22.6608 138.377 23.3512C138.868 24.0212 139.143 24.8029 139.202 25.6963V31.3309C139.143 32.204 138.868 32.9857 138.377 33.676C137.905 34.3461 137.277 34.874 136.491 35.2598C135.706 35.6456 134.832 35.8385 133.87 35.8385ZM134.724 31.6963C135.352 31.6963 135.892 31.5542 136.344 31.2699C136.815 30.9857 137.169 30.6101 137.405 30.143C137.66 29.6557 137.788 29.1075 137.788 28.4984C137.788 27.8892 137.66 27.341 137.405 26.8537C137.169 26.3664 136.815 25.9806 136.344 25.6963C135.892 25.4121 135.352 25.2699 134.724 25.2699C134.115 25.2699 133.575 25.4121 133.104 25.6963C132.632 25.9806 132.269 26.3664 132.014 26.8537C131.758 27.341 131.631 27.8892 131.631 28.4984C131.631 29.0669 131.758 29.605 132.014 30.1126C132.269 30.5999 132.622 30.9857 133.074 31.2699C133.545 31.5542 134.095 31.6963 134.724 31.6963Z" fill="#008DEA"/>
<path d="M154.667 36.2953V27.8588C154.667 27.0872 154.431 26.4679 153.96 26.0009C153.508 25.5136 152.929 25.2699 152.222 25.2699C151.731 25.2699 151.299 25.3816 150.926 25.605C150.553 25.808 150.258 26.1126 150.042 26.5187C149.826 26.9045 149.718 27.3512 149.718 27.8588L147.98 26.9755C147.98 25.8182 148.225 24.8029 148.716 23.9298C149.207 23.0568 149.885 22.3867 150.749 21.9197C151.633 21.4324 152.625 21.1887 153.724 21.1887C154.785 21.1887 155.718 21.4527 156.523 21.9806C157.348 22.4882 157.996 23.1684 158.467 24.0212C158.939 24.874 159.174 25.808 159.174 26.8232V36.2953H154.667ZM145.211 36.2953V21.4933H149.718V36.2953H145.211Z" fill="#008DEA"/>
<path d="M160.809 36.2953L169.057 14.7927H173.24L181.4 36.2953H176.51L170.265 18.4476H171.944L165.61 36.2953H160.809ZM165.493 32.3968V28.4983H176.834V32.3968H165.493Z" fill="white"/>
<path d="M188.769 36.5998C187.414 36.5998 186.206 36.2648 185.145 35.5948C184.104 34.9247 183.28 34.011 182.671 32.8536C182.082 31.6963 181.787 30.3765 181.787 28.8943C181.787 27.412 182.082 26.0922 182.671 24.9349C183.28 23.7775 184.104 22.8638 185.145 22.1937C186.206 21.5237 187.414 21.1887 188.769 21.1887C189.751 21.1887 190.635 21.3816 191.42 21.7674C192.225 22.1531 192.883 22.6912 193.394 23.3816C193.924 24.0516 194.219 24.8232 194.278 25.6963V31.9399C194.219 32.813 193.934 33.6049 193.423 34.3156C192.913 35.0059 192.255 35.5643 191.45 35.9907C190.644 36.3968 189.751 36.5998 188.769 36.5998ZM189.564 32.3968C190.212 32.3968 190.772 32.2547 191.243 31.9704C191.715 31.6658 192.088 31.2496 192.363 30.7217C192.638 30.1937 192.775 29.5846 192.775 28.8943C192.775 28.2039 192.638 27.6049 192.363 27.0973C192.107 26.5694 191.734 26.1531 191.243 25.8486C190.772 25.544 190.222 25.3917 189.594 25.3917C188.965 25.3917 188.405 25.544 187.914 25.8486C187.443 26.1531 187.06 26.5694 186.766 27.0973C186.491 27.6252 186.353 28.2242 186.353 28.8943C186.353 29.5643 186.491 30.1633 186.766 30.6912C187.041 31.2191 187.423 31.6354 187.914 31.9399C188.405 32.2445 188.955 32.3968 189.564 32.3968ZM197.017 36.2953H192.598V32.3054L193.276 28.7115L192.51 25.1176V14.1836H197.017V36.2953Z" fill="white"/>
<path d="M200.191 36.2953V21.4932H204.698V36.2953H200.191ZM209.353 36.2953V27.6455C209.353 26.8943 209.127 26.3156 208.675 25.9095C208.243 25.4831 207.703 25.2699 207.055 25.2699C206.603 25.2699 206.2 25.3714 205.847 25.5745C205.493 25.7572 205.209 26.0212 204.993 26.3663C204.796 26.7115 204.698 27.1379 204.698 27.6455L202.96 26.8536C202.96 25.676 203.205 24.6709 203.696 23.8384C204.187 22.9856 204.855 22.3359 205.7 21.8892C206.544 21.4222 207.497 21.1887 208.557 21.1887C209.559 21.1887 210.452 21.4222 211.238 21.8892C212.043 22.3562 212.681 23.0059 213.153 23.8384C213.624 24.6709 213.86 25.6658 213.86 26.8232V36.2953H209.353ZM218.514 36.2953V27.6455C218.514 26.8943 218.288 26.3156 217.837 25.9095C217.405 25.4831 216.865 25.2699 216.216 25.2699C215.765 25.2699 215.362 25.3714 215.009 25.5745C214.655 25.7572 214.37 26.0212 214.154 26.3663C213.958 26.7115 213.86 27.1379 213.86 27.6455L211.267 27.28C211.307 26.0212 211.591 24.945 212.122 24.0516C212.672 23.1379 213.388 22.4374 214.272 21.9501C215.176 21.4425 216.187 21.1887 217.306 21.1887C218.406 21.1887 219.378 21.4323 220.223 21.9196C221.087 22.3866 221.765 23.0668 222.256 23.9602C222.766 24.8333 223.021 25.8892 223.021 27.1278V36.2953H218.514Z" fill="white"/>
<path d="M225.91 36.2953V21.4932H230.417V36.2953H225.91ZM228.178 19.4526C227.471 19.4526 226.882 19.209 226.411 18.7217C225.959 18.214 225.733 17.6049 225.733 16.8943C225.733 16.1633 225.959 15.5542 226.411 15.0668C226.882 14.5795 227.471 14.3359 228.178 14.3359C228.885 14.3359 229.465 14.5795 229.916 15.0668C230.368 15.5542 230.594 16.1633 230.594 16.8943C230.594 17.6049 230.368 18.214 229.916 18.7217C229.465 19.209 228.885 19.4526 228.178 19.4526Z" fill="white"/>
<path d="M235.624 36.2953V15.3714H240.131V36.2953H235.624ZM232.383 25.4526V21.4932H243.371V25.4526H232.383Z" fill="white"/>
<path d="M250.284 36.6608C249.439 36.6608 248.605 36.5491 247.78 36.3257C246.975 36.1024 246.219 35.7877 245.511 35.3816C244.824 34.9552 244.235 34.4679 243.744 33.9196L246.307 31.2394C246.778 31.7674 247.338 32.1836 247.986 32.4882C248.634 32.7724 249.341 32.9146 250.107 32.9146C250.637 32.9146 251.04 32.8333 251.315 32.6709C251.609 32.5085 251.757 32.2851 251.757 32.0009C251.757 31.6354 251.58 31.3613 251.227 31.1785C250.893 30.9755 250.461 30.8029 249.93 30.6608C249.4 30.4983 248.84 30.3257 248.251 30.143C247.662 29.9602 247.102 29.7064 246.572 29.3816C246.042 29.0567 245.61 28.61 245.276 28.0415C244.942 27.4526 244.775 26.7115 244.775 25.8181C244.775 24.8638 245.011 24.0415 245.482 23.3511C245.953 22.6404 246.621 22.0821 247.485 21.676C248.349 21.2699 249.361 21.0668 250.52 21.0668C251.737 21.0668 252.857 21.2902 253.878 21.7369C254.919 22.1633 255.763 22.8029 256.411 23.6557L253.848 26.3359C253.397 25.7877 252.886 25.4019 252.316 25.1785C251.767 24.9552 251.227 24.8435 250.696 24.8435C250.186 24.8435 249.803 24.9247 249.547 25.0871C249.292 25.2293 249.164 25.4425 249.164 25.7267C249.164 26.0313 249.331 26.275 249.665 26.4577C249.999 26.6404 250.431 26.8029 250.961 26.945C251.492 27.0871 252.051 27.2597 252.641 27.4628C253.23 27.6658 253.789 27.9399 254.32 28.2851C254.85 28.6303 255.282 29.0973 255.616 29.6861C255.95 30.2547 256.117 31.0059 256.117 31.9399C256.117 33.3816 255.586 34.5288 254.526 35.3816C253.485 36.2344 252.071 36.6608 250.284 36.6608Z" fill="white"/>
</svg>
